<svg xmlns="http://www.w3.org/2000/svg" viewBox="0 0 100 100" width="100%" height="100%">
  <!-- Flame Base / Stove Grate -->
  <rect x="35" y="88" width="30" height="4" rx="2" fill="#2d3748" />
  
  <!-- Blue Flames -->
  <path d="M 38 88 C 38 84, 40 80, 41 80 C 42 80, 44 84, 44 88 Z" fill="#3182ce" />
  <path d="M 44 88 C 44 83, 46 78, 47 78 C 48 78, 50 83, 50 88 Z" fill="#3182ce" />
  <path d="M 50 88 C 50 83, 52 78, 53 78 C 54 78, 56 83, 56 88 Z" fill="#3182ce" />
  <path d="M 56 88 C 56 84, 58 80, 59 80 C 60 80, 62 84, 62 88 Z" fill="#3182ce" />
  
  <!-- Inner Flame details for premium feel -->
  <path d="M 40 88 C 40 85, 41 83, 41 83 C 41 83, 42 85, 42 88 Z" fill="#63b3ed" />
  <path d="M 46 88 C 46 84, 47 81, 47 81 C 47 81, 48 84, 48 88 Z" fill="#63b3ed" />
  <path d="M 52 88 C 52 84, 53 81, 53 81 C 53 81, 54 84, 54 88 Z" fill="#63b3ed" />
  <path d="M 58 88 C 58 85, 59 83, 59 83 C 59 83, 60 85, 60 88 Z" fill="#63b3ed" />

  <!-- Pot Handles -->
  <rect x="8" y="48" width="10" height="6" rx="2" fill="#2d3748" />
  <rect x="82" y="48" width="10" height="6" rx="2" fill="#2d3748" />

  <!-- Steam / Boiling Food -->
  <path d="M 22 44 C 22 36, 32 32, 38 36 C 42 30, 52 26, 62 30 C 68 28, 76 30, 78 36 C 84 36, 88 40, 88 44 Z" fill="#ebf8ff" />
  <path d="M 25 44 C 25 38, 33 34, 38 38 C 42 32, 52 28, 62 32 C 67 30, 74 32, 76 38 C 82 38, 85 41, 85 44 Z" fill="#c3dafe" opacity="0.8" />

  <!-- Pot Body -->
  <path d="M 16 44 L 84 44 C 84 44, 84 76, 80 80 C 76 84, 24 84, 20 80 C 16 76, 16 44, 16 44 Z" fill="#b0bec5" />
  <!-- Shadow / highlight on pot body for premium feel -->
  <path d="M 16 44 L 84 44 C 84 44, 84 48, 80 50 L 20 50 C 16 48, 16 44, 16 44 Z" fill="#90a4ae" opacity="0.5" />
  
  <!-- Wooden Spoon -->
  <!-- Spoon Bowl -->
  <ellipse cx="38" cy="28" rx="8" ry="5" transform="rotate(-15, 38, 28)" fill="#8d6e63" />
  <!-- Spoon Handle -->
  <rect x="39" y="22" width="40" height="3.5" rx="1.5" transform="rotate(-24, 39, 22)" fill="#a1887f" />
  <rect x="39" y="24" width="40" height="1.5" rx="0.5" transform="rotate(-24, 39, 22)" fill="#795548" opacity="0.5" />
</svg>
